<?xml version="1.0" encoding="UTF-8"?><svg id="OUTLINED" xmlns="http://www.w3.org/2000/svg" viewBox="0 0 108 108"><defs><style>.cls-1{fill:#243444;}.cls-2{fill:#4ea2d1;}</style></defs><path class="cls-2" d="m54,17.48c-20.04,0-36.35,16.31-36.35,36.35s16.31,36.35,36.35,36.35,36.35-16.3,36.35-36.35-16.31-36.35-36.35-36.35Zm18.64,26.07l-23.3,29.43s0,0,0,0c-.82,1.03-2.23,1.09-3.13.13,0,0,0,0-.01-.01l-13.33-14.38c-.91-.98-.87-2.55.07-3.49l4.12-4.12c.94-.94,2.48-.94,3.42,0l5.92,5.92,1.71,1.71,1.45-1.93s0,0,0,0l14.68-19.57s0,0,0,0c.8-1.06,2.32-1.28,3.39-.48l4.58,3.43c1.07.8,1.26,2.31.43,3.35Z"/><path class="cls-1" d="m54,92.18c-21.14,0-38.35-17.2-38.35-38.35S32.86,15.48,54,15.48s38.35,17.2,38.35,38.35-17.2,38.35-38.35,38.35Zm0-72.69c-18.94,0-34.35,15.41-34.35,34.35s15.41,34.35,34.35,34.35,34.35-15.41,34.35-34.35-15.41-34.35-34.35-34.35Z"/></svg>
